<?xml version="1.0" encoding="UTF-8"?><svg id="Layer_1" xmlns="http://www.w3.org/2000/svg" viewBox="0 0 712.51 337.2"><defs><style>.cls-1{fill:#fff;}.cls-2{fill:#78ba3a;}</style></defs><g><path class="cls-1" d="M712.51,143.52c-75.62,116.57-206.95,193.68-356.25,193.68S75.62,260.09,0,143.52H106.62c0,37.67,30.5,68.17,68.17,68.17s68.17-30.5,68.17-68.17h45.12c0,37.67,30.5,68.17,68.17,68.17s68.17-30.5,68.17-68.17h45.12c0,37.67,30.5,68.17,68.17,68.17s68.17-30.5,68.17-68.17h106.62Z"/><path class="cls-2" d="M424.43,143.52h-136.34c0-37.67,30.5-68.17,68.17-68.17s68.17,30.5,68.17,68.17Z"/><path class="cls-2" d="M242.96,143.52H106.62c0-37.67,30.5-68.17,68.17-68.17s68.17,30.5,68.17,68.17Z"/><path class="cls-2" d="M605.89,143.52h-136.34c0-37.67,30.5-68.17,68.17-68.17s68.17,30.5,68.17,68.17Z"/></g><circle class="cls-1" cx="174.79" cy="27.13" r="27.13"/><circle class="cls-1" cx="356.25" cy="27.13" r="27.13"/><circle class="cls-1" cx="537.72" cy="27.13" r="27.13"/></svg>